<svg width="605" height="605" viewBox="0 0 605 605" fill="none" xmlns="http://www.w3.org/2000/svg">
<path fill-rule="evenodd" clip-rule="evenodd" d="M302.5 72.7441C240.98 72.7443 181.98 97.0819 138.479 140.403C94.9776 183.724 70.5387 242.481 70.5386 303.746C70.5384 334.082 76.5382 364.12 88.1952 392.147C99.8523 420.174 116.939 445.639 138.478 467.09C160.018 488.541 185.589 505.556 213.732 517.165C241.875 528.774 272.038 534.749 302.5 534.749C332.961 534.749 363.124 528.774 391.267 517.165C419.41 505.556 444.982 488.541 466.521 467.09C488.061 445.639 505.147 420.174 516.804 392.147C528.461 364.12 534.461 334.082 534.46 303.746C534.46 242.481 510.022 183.724 466.521 140.403C423.019 97.0819 364.019 72.7443 302.5 72.7441ZM302.5 234.883C311.58 234.883 320.573 236.664 328.962 240.125C337.352 243.586 344.975 248.658 351.397 255.053C357.818 261.447 362.911 269.039 366.386 277.394C369.861 285.749 371.65 294.704 371.65 303.747C371.65 312.791 369.861 321.746 366.386 330.1C362.911 338.455 357.817 346.047 351.396 352.441C344.975 358.836 337.352 363.908 328.962 367.369C320.572 370.829 311.58 372.611 302.5 372.61C293.419 372.611 284.427 370.829 276.037 367.369C267.647 363.908 260.024 358.836 253.603 352.441C247.182 346.047 242.088 338.455 238.613 330.1C235.138 321.746 233.349 312.791 233.349 303.747C233.349 294.704 235.138 285.749 238.613 277.394C242.088 269.039 247.181 261.447 253.603 255.053C260.024 248.658 267.647 243.586 276.037 240.125C284.427 236.664 293.419 234.883 302.5 234.883Z" fill="url(#paint0_radial_220_2731)" stroke="black" stroke-width="0.0209503" stroke-linecap="round" stroke-linejoin="round"/>
<path fill-rule="evenodd" clip-rule="evenodd" d="M289.497 70.2332C274.014 72.329 258.721 76.6883 245.35 84.7324C236.505 92.2823 227.771 100.036 215.912 102.119C208.26 104.905 200.605 107.675 192.322 106.594C178.069 115.493 171.203 131.666 157.495 141.276C151.078 145.599 147.557 151.886 145.138 159.177C141.779 168.895 128.578 168.13 124.729 177.698C115.653 187.958 106.472 199.001 104.911 213.134C99.2933 230.793 93.2852 248.671 83.3101 264.42C81.7419 272.488 70.8622 275.33 73.0288 284.238C72.0176 303.035 73.8291 321.838 76.6088 340.418C86.2244 344.576 92.9652 353.434 93.0749 364.036C97.1449 373.488 103.816 382.119 107.787 391.745C117.85 404.373 129.306 416.02 144.014 423.208C156.369 435.912 162.955 452.475 170.977 467.958C186.799 480.53 210.858 481.893 221.132 501.115C225.65 506.402 231.505 513.881 238.912 513.829C248.845 514.163 259.488 511.743 267.614 518.913C274.601 523.252 283.494 525.307 287.811 532.847C297.736 532.281 307.66 532.239 317.583 532.847C326.713 518.671 343.626 513.555 357.582 505.378C369.286 498.528 383.826 498.227 394.121 488.745C402.96 482.81 412.099 477.209 423.091 477.017C442.691 473.749 463.554 467.918 476.829 452.355C483.064 444.177 487.59 435.296 488.53 424.943C495.749 412.021 504.081 399.314 510.413 385.717C516.202 374.783 518.419 362.151 521.437 350.311C520.781 334.528 521.604 318.526 515.866 303.498C515.498 287.873 524.81 273.831 522.606 258.106C521.915 246.903 527.237 235.853 522.014 225.066C519.537 212.267 515.539 200.066 508.148 189.199C498.928 169.323 481.209 155.504 467.452 138.862C458.038 126.215 443.687 118.921 430.311 111.244C418.401 106.994 407.016 99.9644 393.892 102.119C384.549 101.198 373.996 104.038 365.458 100.614C351.479 92.3053 344.259 73.1125 326.308 72.1396C314.13 69.6786 301.847 70.2359 289.497 70.2332ZM319.267 213.997C327.846 210.563 331.924 218.833 338.65 222.264C353.371 220.847 342.9 240.382 353.67 242.507C359.989 249.337 370.727 240.757 374.761 248.957C377.039 257.131 389.326 255.529 387.73 264.987C388.121 273.301 399.751 275.926 395.949 285.666C388.909 289.498 374.149 303.671 387.215 309.231C393.957 314.179 394.284 323.694 388.386 329.586C373.932 330.2 373.819 339.579 370.337 350.295C366.525 358.611 370.515 369.582 363.571 376.168C352.222 380.916 339.607 372.174 333.614 386.68C324.533 387.344 318.991 382.328 315.131 374.613C307.991 379.204 300.346 382.147 291.744 381.965C286.667 376.496 279.981 369.609 272.651 369.352C263.618 374.197 250.975 384.336 247.014 369.297C239.595 364.234 230.398 356.11 234.671 346.19C236.678 338.181 236.595 330.825 228.708 326.259C221.774 323.023 211.972 319.178 214.779 309.714C218.272 302.022 222.958 293.39 217.968 285.096C221.188 275.533 218.54 256.676 233.284 256.811C242.313 259.336 248.895 257.11 251.832 247.811C255.785 241.552 246.059 230.19 256.961 228.152C262.837 222.149 272.242 225.926 277.31 219.097C286.185 207.385 296.753 220.407 306.437 221.942C314.423 223.264 316.633 221.525 319.267 213.997V213.997Z" fill="#3B2E26" stroke="black" stroke-width="0.0188889" stroke-linecap="round" stroke-linejoin="round"/>
<g filter="url(#filter0_f_220_2731)">
<path fill-rule="evenodd" clip-rule="evenodd" d="M180.973 228.96C180.261 229.527 179.827 230.426 179.827 231.334C179.827 232.241 180.261 233.14 180.973 233.707C181.121 233.825 181.28 233.929 181.424 234.052C181.568 234.176 181.698 234.322 181.767 234.498C181.816 234.621 181.833 234.755 181.835 234.888C181.837 235.021 181.824 235.153 181.811 235.285C181.784 235.55 181.767 235.815 181.767 236.08V237.662V244.782C181.767 245.587 181.846 246.388 181.973 247.183C182.036 247.58 182.097 247.98 182.088 248.382C182.079 248.784 181.992 249.195 181.767 249.529C181.558 249.839 181.244 250.061 180.973 250.32C180.753 250.529 180.558 250.766 180.415 251.034C180.272 251.301 180.183 251.599 180.178 251.902C180.175 252.166 180.234 252.434 180.178 252.693C180.139 252.879 180.04 253.05 179.916 253.194C179.791 253.339 179.641 253.459 179.485 253.569C179.173 253.789 178.829 253.979 178.59 254.275C178.416 254.49 178.307 254.75 178.241 255.018C178.175 255.285 178.15 255.561 178.131 255.836C178.092 256.386 178.069 256.961 177.795 257.44C177.609 257.765 177.321 258.019 177.03 258.257C176.738 258.494 176.436 258.725 176.207 259.022C175.845 259.49 175.695 260.084 175.412 260.604C175.27 260.865 175.095 261.107 174.943 261.362C174.79 261.618 174.659 261.892 174.618 262.186C174.581 262.448 174.616 262.713 174.618 262.977C174.621 263.695 174.37 264.392 174.049 265.035C173.729 265.678 173.337 266.284 173.029 266.933C172.775 267.467 172.576 268.032 172.235 268.515C171.91 268.974 171.471 269.337 171.038 269.697C170.606 270.057 170.169 270.424 169.852 270.888C169.518 271.376 169.332 271.948 169.057 272.47C168.781 272.994 168.411 273.48 168.263 274.053C168.163 274.437 168.169 274.841 168.197 275.237C168.226 275.633 168.276 276.029 168.263 276.426C168.234 277.264 167.923 278.065 167.581 278.83C167.238 279.596 166.857 280.354 166.674 281.172C166.472 282.076 166.519 283.015 166.594 283.938C166.669 284.861 166.771 285.789 166.674 286.71C166.576 287.64 166.291 288.54 166.111 289.457C165.93 290.375 165.88 291.313 165.88 292.248V297.785C165.88 298.577 165.82 299.37 165.88 300.159C165.978 301.464 166.508 302.7 167.136 303.85C167.764 305 168.497 306.094 169.057 307.279C169.665 308.564 170.06 309.939 170.646 311.234C171.041 312.106 171.533 312.953 172.235 313.607C172.51 313.864 172.814 314.087 173.098 314.334C173.381 314.582 173.648 314.857 173.823 315.189C174.08 315.675 174.124 316.24 174.178 316.786C174.232 317.332 174.309 317.899 174.618 318.354C174.888 318.752 175.308 319.022 175.735 319.244C176.163 319.465 176.612 319.652 177.001 319.936C177.606 320.377 178.026 321.025 178.59 321.518C179.307 322.147 180.229 322.502 180.973 323.1C181.556 323.569 182.013 324.174 182.562 324.683C183.962 325.981 185.884 326.596 187.328 327.847C188.176 328.582 188.835 329.518 189.711 330.22C190.455 330.817 191.333 331.228 192.094 331.802C193.289 332.705 194.15 333.976 195.272 334.967C196.543 336.09 198.139 336.846 199.243 338.131C199.94 338.941 200.403 339.92 200.851 340.888C201.299 341.857 201.748 342.84 202.421 343.669C203.365 344.83 204.705 345.633 205.598 346.833C206.201 347.643 206.573 348.597 206.899 349.551C207.225 350.504 207.515 351.477 207.982 352.371C208.694 353.738 209.802 354.892 210.365 356.326C211.049 358.069 210.853 360.018 211.159 361.864C211.515 364.013 212.553 366.023 212.748 368.193C212.866 369.506 212.748 370.829 212.748 372.148V375.313V380.059C212.748 380.589 212.774 381.118 212.816 381.646C212.857 382.174 212.901 382.716 212.748 383.223C212.61 383.681 212.316 384.075 212.011 384.444C211.705 384.813 211.38 385.172 211.159 385.597C210.773 386.339 210.739 387.222 210.365 387.97C210.029 388.642 209.446 389.156 208.855 389.622C208.264 390.089 207.643 390.537 207.187 391.134C206.833 391.599 206.59 392.139 206.241 392.607C206.066 392.841 205.864 393.057 205.622 393.221C205.38 393.386 205.097 393.496 204.804 393.508C204.534 393.519 204.269 393.446 204.002 393.408C203.869 393.389 203.733 393.378 203.599 393.39C203.465 393.402 203.331 393.438 203.215 393.508C203.054 393.605 202.938 393.76 202.823 393.909C202.709 394.059 202.588 394.211 202.421 394.299C202.302 394.361 202.166 394.387 202.032 394.39C201.898 394.393 201.764 394.374 201.631 394.35C201.367 394.303 201.094 394.239 200.832 394.299C200.646 394.341 200.478 394.445 200.338 394.574C200.197 394.703 200.083 394.857 199.976 395.015C199.762 395.33 199.564 395.675 199.243 395.881C199.072 395.991 198.874 396.055 198.673 396.083C198.471 396.111 198.266 396.104 198.064 396.08C197.66 396.033 197.265 395.919 196.86 395.881C196.311 395.829 195.755 395.918 195.226 396.075C194.696 396.231 194.189 396.453 193.683 396.672C192.913 397.006 192.13 397.338 191.3 397.463C190.644 397.562 189.977 397.533 189.315 397.507C188.653 397.48 187.991 397.463 187.328 397.463H183.356C180.441 397.463 177.511 397.818 174.618 397.463C173.277 397.299 171.971 396.933 170.646 396.672C169.066 396.361 167.459 396.198 165.88 395.881C161.607 395.024 157.476 392.945 154.758 389.552C153.932 388.521 153.245 387.383 152.375 386.388C151.391 385.262 150.192 384.34 149.198 383.223C148.319 382.237 147.612 381.112 146.815 380.059C146.017 379.006 145.124 378.019 144.431 376.895C143.812 375.889 143.363 374.79 142.843 373.73C142.062 372.14 141.115 370.629 140.46 368.984C139.933 367.662 139.596 366.254 138.871 365.028C138.009 363.571 136.656 362.466 135.693 361.073C134.714 359.656 134.172 357.991 133.66 356.348C133.148 354.706 132.642 353.035 131.721 351.58C130.817 350.15 129.548 348.987 128.544 347.624C126.15 344.375 125.417 340.234 123.778 336.549C122.047 332.658 119.309 329.292 117.423 325.474C116.532 323.671 115.837 321.781 115.039 319.936C114.571 318.852 114.065 317.781 113.451 316.772C111.691 313.88 109.104 311.586 107.096 308.861C106.531 308.094 106.013 307.294 105.507 306.487C104.184 304.377 102.94 302.216 101.535 300.159C100.863 299.175 100.135 298.169 99.9463 296.994C99.8627 296.473 99.8869 295.941 99.9096 295.413C99.9324 294.886 99.9463 294.358 99.9463 293.83V289.874C99.9463 288.027 99.7206 286.17 99.9463 284.337C100.266 281.737 101.752 279.451 103.124 277.217C105.908 272.683 108.38 267.946 110.273 262.977C111.201 260.543 112.004 258.025 113.451 255.857C114.803 253.831 116.662 252.197 118.217 250.32C120.648 247.384 122.305 243.891 124.572 240.827C125.578 239.467 126.7 238.197 127.75 236.871C129.62 234.509 131.264 231.964 133.31 229.751C134.832 228.105 136.562 226.658 138.076 225.005C140.754 222.08 142.703 218.57 145.226 215.512C146.303 214.206 147.487 212.978 148.403 211.556C149.363 210.066 150.005 208.4 150.786 206.81C152.145 204.046 153.924 201.513 155.553 198.899C157.181 196.285 158.662 193.583 160.319 190.988C161.344 189.383 162.434 187.821 163.496 186.241C165.295 183.565 167.016 180.828 169.057 178.33C171.831 174.936 175.271 171.96 179.384 170.419C180.952 169.832 182.596 169.46 184.15 168.837C184.93 168.525 185.699 168.145 186.533 168.046C187.323 167.952 188.124 168.115 188.917 168.046C190.006 167.951 191.014 167.425 192.094 167.255C193.142 167.089 194.211 167.264 195.272 167.255C196.333 167.245 197.407 167.051 198.449 167.255C199.595 167.479 200.608 168.174 201.384 169.043C202.16 169.912 202.72 170.949 203.215 172.001C203.467 172.536 203.704 173.078 204.01 173.584C204.164 173.838 204.334 174.082 204.481 174.34C204.628 174.598 204.753 174.873 204.804 175.166C204.896 175.686 204.752 176.222 204.804 176.748C204.846 177.164 205.009 177.558 205.177 177.941C205.346 178.325 205.524 178.71 205.598 179.121C205.693 179.643 205.617 180.179 205.555 180.706C205.493 181.233 205.447 181.777 205.598 182.286C205.767 182.852 206.164 183.323 206.393 183.868C206.651 184.484 206.683 185.171 206.631 185.836C206.579 186.501 206.448 187.158 206.393 187.823C206.371 188.087 206.361 188.352 206.393 188.614C206.493 189.445 206.996 190.173 207.187 190.988C207.338 191.631 207.295 192.302 207.254 192.962C207.213 193.622 207.187 194.282 207.187 194.943V196.525C207.187 197.053 207.262 197.585 207.187 198.108C207.126 198.533 206.935 198.932 206.682 199.281C206.43 199.629 206.118 199.931 205.794 200.215C205.148 200.784 204.431 201.313 204.01 202.063C203.716 202.586 203.586 203.182 203.393 203.75C203.297 204.034 203.183 204.313 203.027 204.57C202.87 204.826 202.67 205.059 202.421 205.227C202.259 205.337 202.079 205.418 201.925 205.537C201.847 205.596 201.776 205.665 201.722 205.746C201.668 205.827 201.632 205.921 201.627 206.018C201.619 206.156 201.673 206.288 201.701 206.422C201.715 206.489 201.723 206.559 201.713 206.627C201.704 206.695 201.676 206.762 201.627 206.81C201.577 206.857 201.51 206.883 201.442 206.892C201.373 206.9 201.304 206.891 201.237 206.877C201.103 206.848 200.969 206.796 200.832 206.81C200.754 206.817 200.678 206.847 200.613 206.89C200.547 206.934 200.492 206.992 200.447 207.056C200.358 207.186 200.314 207.341 200.287 207.495C200.259 207.65 200.248 207.807 200.217 207.961C200.186 208.115 200.135 208.268 200.038 208.392C199.945 208.51 199.814 208.595 199.676 208.655C199.537 208.714 199.39 208.751 199.243 208.787C199.097 208.823 198.95 208.86 198.811 208.92C198.673 208.98 198.542 209.064 198.449 209.183C198.352 209.306 198.301 209.46 198.27 209.614C198.24 209.768 198.228 209.925 198.201 210.08C198.173 210.234 198.129 210.389 198.04 210.519C197.995 210.583 197.94 210.641 197.874 210.685C197.809 210.728 197.733 210.758 197.655 210.765C197.518 210.778 197.384 210.726 197.25 210.697C197.183 210.683 197.113 210.674 197.045 210.682C196.977 210.691 196.909 210.717 196.86 210.765C196.811 210.813 196.784 210.88 196.775 210.948C196.766 211.016 196.774 211.086 196.788 211.153C196.817 211.287 196.87 211.419 196.86 211.556C196.853 211.653 196.815 211.745 196.759 211.825C196.703 211.904 196.631 211.97 196.553 212.028C196.397 212.144 196.218 212.227 196.066 212.347C195.919 212.463 195.8 212.611 195.679 212.754C195.558 212.897 195.43 213.038 195.272 213.138C195.013 213.301 194.698 213.338 194.402 213.417C194.255 213.456 194.109 213.508 193.98 213.591C193.851 213.673 193.74 213.788 193.683 213.929C193.633 214.053 193.625 214.19 193.635 214.323C193.644 214.456 193.67 214.588 193.683 214.721C193.745 215.354 193.501 216.008 193.046 216.456C192.592 216.903 191.937 217.138 191.3 217.094C191.167 217.085 191.035 217.064 190.901 217.056C190.768 217.048 190.632 217.053 190.505 217.094C190.324 217.152 190.173 217.281 190.049 217.426C189.926 217.57 189.825 217.733 189.711 217.885C189.261 218.482 188.608 218.898 188.122 219.467C187.735 219.921 187.46 220.469 187.328 221.049C186.832 221.609 186.301 222.137 185.739 222.631C185.458 222.879 185.166 223.12 184.945 223.423C184.831 223.577 184.738 223.746 184.617 223.895C184.495 224.043 184.338 224.173 184.15 224.214C184.02 224.242 183.885 224.225 183.753 224.21C183.621 224.194 183.485 224.181 183.356 224.214C183.264 224.238 183.178 224.285 183.104 224.344C183.03 224.404 182.965 224.475 182.907 224.55C182.789 224.7 182.693 224.867 182.562 225.005C182.431 225.142 182.271 225.245 182.123 225.363C181.975 225.481 181.835 225.62 181.767 225.796C181.72 225.92 181.711 226.057 181.72 226.19C181.728 226.323 181.752 226.454 181.767 226.587C181.865 227.442 181.567 228.335 180.973 228.96L180.973 228.96Z" fill="#5D483C"/>
<path fill-rule="evenodd" clip-rule="evenodd" d="M431.202 146.691C428.926 145.191 426.533 143.867 424.052 142.735C422.975 142.243 421.876 141.785 420.875 141.153C420.068 140.643 419.331 140.024 418.492 139.571C417.237 138.893 415.803 138.611 414.52 137.989C413.987 137.73 413.482 137.414 412.931 137.197C411.914 136.798 410.788 136.757 409.753 136.406C408.958 136.137 408.208 135.683 407.37 135.615C406.842 135.572 406.307 135.687 405.782 135.615C405.365 135.559 404.975 135.388 404.59 135.219C404.206 135.05 403.815 134.88 403.398 134.824C402.873 134.754 402.34 134.824 401.81 134.824H398.632C397.968 134.824 397.305 134.797 396.642 134.753C395.98 134.709 395.304 134.662 394.66 134.824C394.083 134.969 393.563 135.281 393.071 135.615C391.672 136.569 390.437 137.74 389.1 138.78C388.653 139.127 388.194 139.46 387.775 139.84C387.356 140.22 386.975 140.651 386.716 141.153C386.334 141.896 386.241 142.754 385.922 143.526C385.697 144.072 385.363 144.567 385.128 145.108C384.795 145.874 384.666 146.716 384.333 147.482C384.098 148.023 383.764 148.518 383.539 149.064C383.123 150.071 383.098 151.198 382.745 152.228C382.513 152.904 382.145 153.524 381.82 154.161C381.495 154.798 381.207 155.471 381.156 156.184C381.118 156.71 381.21 157.241 381.156 157.766C381.086 158.439 380.793 159.066 380.606 159.715C380.418 160.365 380.361 161.045 380.361 161.721V164.095C380.361 164.229 380.347 164.363 380.324 164.496C380.312 164.562 380.301 164.629 380.302 164.696C380.304 164.763 380.32 164.832 380.361 164.886C380.404 164.941 380.471 164.975 380.539 164.988C380.608 165.001 380.679 164.994 380.748 164.979C380.884 164.949 381.016 164.888 381.156 164.886C381.237 164.884 381.318 164.904 381.391 164.939C381.465 164.974 381.53 165.024 381.586 165.083C381.696 165.201 381.765 165.353 381.805 165.51C381.887 165.823 381.863 166.156 381.95 166.468C382.03 166.753 382.197 167.005 382.359 167.254C382.52 167.503 382.681 167.761 382.745 168.05C382.801 168.309 382.777 168.577 382.75 168.841C382.723 169.104 382.695 169.372 382.745 169.632C382.798 169.913 382.941 170.172 383.126 170.392C383.31 170.611 383.535 170.793 383.769 170.959C384.237 171.291 384.756 171.569 385.128 172.006C385.439 172.372 385.625 172.825 385.839 173.256C386.052 173.687 386.312 174.118 386.716 174.379C386.967 174.54 387.257 174.626 387.538 174.728C387.818 174.829 388.101 174.953 388.305 175.17C388.509 175.387 388.615 175.675 388.712 175.956C388.809 176.236 388.907 176.526 389.1 176.752C389.293 176.979 389.568 177.124 389.846 177.232C390.125 177.341 390.416 177.419 390.688 177.543C391.215 177.784 391.652 178.192 391.997 178.657C392.342 179.121 392.6 179.642 392.84 180.168C393.079 180.694 393.302 181.228 393.584 181.733C393.867 182.237 394.212 182.715 394.66 183.081C395.119 183.456 395.67 183.702 396.22 183.925C396.77 184.147 397.332 184.353 397.838 184.663C398.478 185.055 399.008 185.601 399.502 186.164C399.997 186.728 400.465 187.318 401.015 187.827C401.986 188.726 403.182 189.348 404.193 190.201C405.624 191.408 406.654 193.05 408.165 194.156C408.934 194.72 409.813 195.131 410.548 195.738C411.126 196.216 411.601 196.803 412.09 197.371C412.578 197.939 413.093 198.499 413.725 198.903C414.131 199.161 414.577 199.35 415.001 199.58C415.424 199.81 415.833 200.091 416.108 200.485C416.349 200.829 416.472 201.239 416.57 201.647C416.668 202.055 416.743 202.47 416.903 202.858C417.265 203.74 418.023 204.4 418.492 205.231C418.902 205.961 419.075 206.795 419.286 207.605C420.11 210.773 421.598 213.826 421.669 217.098C421.686 217.889 421.619 218.681 421.669 219.471C421.77 221.074 422.348 222.616 422.463 224.218C422.539 225.27 422.463 226.327 422.463 227.382V232.92V249.533V257.444C422.463 258.499 422.368 259.557 422.463 260.608C422.637 262.524 423.636 264.267 424.052 266.146C424.288 267.212 424.343 268.341 424.847 269.31C425.286 270.156 426.039 270.816 426.435 271.683C426.783 272.444 426.834 273.32 427.23 274.057C427.496 274.553 427.905 274.957 428.334 275.324C428.763 275.69 429.218 276.027 429.613 276.43C430.282 277.112 430.754 277.958 431.213 278.795C431.672 279.632 432.135 280.481 432.79 281.176C433.525 281.956 434.471 282.507 435.439 282.971C436.406 283.435 437.411 283.824 438.351 284.341C439.704 285.085 440.911 286.087 442.323 286.714C443.806 287.373 445.465 287.505 447.089 287.505H448.678C448.943 287.505 449.208 287.512 449.473 287.524C449.738 287.536 450.005 287.548 450.267 287.505C450.598 287.451 450.91 287.306 451.187 287.118C451.465 286.93 451.711 286.699 451.945 286.46C452.414 285.981 452.855 285.453 453.444 285.132C453.812 284.931 454.22 284.819 454.624 284.706C455.028 284.593 455.43 284.473 455.827 284.341L458.21 283.55C459.005 283.286 459.841 283.126 460.594 282.759C461.453 282.34 462.114 281.588 462.977 281.176C463.733 280.816 464.599 280.737 465.36 280.385C466.227 279.984 466.9 279.253 467.743 278.803C468.375 278.466 469.08 278.297 469.769 278.1C470.458 277.902 471.154 277.666 471.715 277.221C472.301 276.755 472.705 276.088 473.304 275.639C473.688 275.35 474.138 275.163 474.567 274.942C474.995 274.722 475.417 274.454 475.687 274.057C475.853 273.811 475.953 273.528 476.06 273.252C476.167 272.976 476.285 272.697 476.481 272.474C476.605 272.333 476.756 272.219 476.899 272.098C477.043 271.977 477.183 271.846 477.275 271.683C477.409 271.449 477.433 271.167 477.409 270.898C477.385 270.63 477.316 270.368 477.275 270.101C477.172 269.428 477.247 268.738 477.41 268.077C477.573 267.416 477.822 266.78 478.07 266.146C478.587 264.822 479.105 263.499 479.659 262.19C480.995 259.03 482.543 255.951 483.631 252.697C484.159 251.114 484.579 249.492 485.219 247.951C485.672 246.86 486.233 245.818 486.808 244.786C488.078 242.506 489.442 240.217 489.986 237.666C490.266 236.349 490.323 234.978 490.78 233.711C491.18 232.6 491.871 231.618 492.369 230.546C492.618 230.01 492.821 229.447 493.163 228.964C493.443 228.569 493.806 228.241 494.12 227.872C494.435 227.504 494.708 227.073 494.752 226.591C494.776 226.328 494.73 226.063 494.752 225.8C494.793 225.318 495.06 224.882 495.372 224.511C495.684 224.14 496.048 223.813 496.341 223.427C496.918 222.663 497.183 221.702 497.258 220.75C497.333 219.797 497.23 218.84 497.135 217.889C497.082 217.362 497.033 216.826 497.135 216.307C497.216 215.896 497.388 215.511 497.553 215.126C497.718 214.742 497.877 214.348 497.929 213.934C497.995 213.41 497.929 212.879 497.929 212.351V207.605C497.929 207.34 497.942 207.076 497.963 206.812C497.983 206.548 498.005 206.276 497.929 206.023C497.875 205.841 497.772 205.677 497.646 205.535C497.52 205.393 497.371 205.273 497.218 205.16C496.913 204.935 496.579 204.735 496.341 204.44C496.154 204.21 496.035 203.934 495.925 203.659C495.816 203.384 495.711 203.105 495.546 202.858C495.338 202.546 495.044 202.302 494.752 202.067C493.285 200.887 491.695 199.753 490.78 198.112C490.492 197.596 490.279 197.042 489.986 196.529C489.512 195.703 488.838 195 488.397 194.156C488.123 193.632 487.942 193.058 487.602 192.574C487.221 192.03 486.665 191.634 486.097 191.287C485.53 190.939 484.935 190.627 484.425 190.201C484.138 189.961 483.881 189.688 483.631 189.41C482.377 188.015 481.252 186.448 479.659 185.454C479.089 185.099 478.471 184.825 477.899 184.474C477.326 184.123 476.787 183.677 476.481 183.081C476.345 182.816 476.259 182.53 476.15 182.253C476.04 181.977 475.903 181.703 475.687 181.499C475.471 181.294 475.191 181.172 474.913 181.067C474.635 180.962 474.348 180.868 474.098 180.708C473.782 180.505 473.541 180.206 473.306 179.914C473.07 179.622 472.828 179.325 472.509 179.125C472.245 178.96 471.94 178.869 471.635 178.806C471.329 178.744 471.018 178.707 470.714 178.639C470.409 178.571 470.107 178.47 469.851 178.291C469.596 178.113 469.39 177.849 469.332 177.543C469.282 177.284 469.339 177.016 469.332 176.752C469.322 176.414 469.205 176.086 469.031 175.795C468.858 175.505 468.629 175.251 468.385 175.016C467.897 174.547 467.336 174.142 466.949 173.588C466.61 173.103 466.424 172.531 466.154 172.006C465.634 170.993 464.788 170.15 463.771 169.632C463.803 168.781 463.515 167.921 462.977 167.259C462.622 166.822 462.169 166.477 461.735 166.118C461.301 165.759 460.874 165.373 460.594 164.886C460.298 164.373 460.175 163.762 459.799 163.304C459.562 163.014 459.238 162.804 459.005 162.512C458.885 162.363 458.791 162.195 458.671 162.046C458.612 161.971 458.545 161.901 458.468 161.844C458.391 161.787 458.304 161.742 458.21 161.721C458.081 161.692 457.945 161.709 457.813 161.725C457.681 161.741 457.545 161.755 457.416 161.721C457.324 161.697 457.239 161.648 457.166 161.588C457.092 161.528 457.029 161.456 456.971 161.381C456.855 161.23 456.758 161.063 456.622 160.93C456.409 160.722 456.119 160.615 455.837 160.518C455.555 160.422 455.263 160.328 455.033 160.139C454.888 160.02 454.774 159.868 454.654 159.723C454.534 159.579 454.404 159.437 454.239 159.348C453.996 159.217 453.687 159.217 453.444 159.348C452.845 159.275 452.273 158.991 451.855 158.557C451.453 158.139 451.201 157.604 450.864 157.132C450.696 156.897 450.504 156.674 450.271 156.501C450.038 156.328 449.762 156.205 449.472 156.184C449.208 156.164 448.939 156.228 448.678 156.184C448.391 156.135 448.138 155.959 447.946 155.742C447.753 155.525 447.612 155.268 447.475 155.012C447.338 154.756 447.201 154.498 447.013 154.277C446.825 154.055 446.579 153.871 446.295 153.81C446.033 153.754 445.762 153.805 445.498 153.845C445.233 153.884 444.954 153.911 444.706 153.81C444.562 153.752 444.437 153.654 444.337 153.535C444.238 153.416 444.164 153.278 444.109 153.133C443.999 152.844 443.964 152.533 443.912 152.228C443.771 151.415 443.482 150.605 442.936 149.984C442.663 149.673 442.328 149.414 441.948 149.248C441.569 149.082 441.145 149.01 440.734 149.064C440.601 149.081 440.469 149.112 440.334 149.123C440.2 149.133 440.06 149.123 439.94 149.064C439.854 149.022 439.782 148.957 439.721 148.885C439.659 148.812 439.607 148.733 439.554 148.654C439.501 148.575 439.447 148.497 439.381 148.429C439.314 148.361 439.236 148.303 439.145 148.273C439.019 148.23 438.882 148.242 438.75 148.254C438.617 148.266 438.484 148.273 438.351 148.273H436.762C436.363 148.273 435.964 148.295 435.566 148.332C435.168 148.369 434.755 148.407 434.379 148.273C434.015 148.143 433.715 147.845 433.585 147.482L431.202 146.691V146.691Z" fill="#5D483C"/>
<path fill-rule="evenodd" clip-rule="evenodd" d="M354.147 407.753H335.876H333.493C332.83 407.753 332.167 407.729 331.504 407.69C330.842 407.651 330.169 407.609 329.521 407.753C328.941 407.882 328.405 408.158 327.894 408.459C327.382 408.76 326.884 409.088 326.344 409.335C324.854 410.015 323.067 410.015 321.578 409.335C320.984 409.973 320.227 410.46 319.398 410.735C318.569 411.01 317.671 411.073 316.811 410.917C316.409 410.844 316.014 410.724 315.607 410.683C315.403 410.662 315.197 410.661 314.995 410.696C314.794 410.731 314.597 410.802 314.428 410.917C314.119 411.129 313.924 411.472 313.634 411.708C313.404 411.896 313.123 412.009 312.846 412.115C312.568 412.221 312.286 412.326 312.045 412.5C311.802 412.675 311.612 412.916 311.466 413.178C311.321 413.44 311.218 413.723 311.128 414.008C310.947 414.578 310.805 415.177 310.456 415.664C310.02 416.272 309.305 416.638 308.868 417.246C308.522 417.726 308.376 418.32 308.073 418.828C307.689 419.474 307.075 419.945 306.484 420.41C304.571 421.92 302.751 423.544 300.924 425.157C298.384 427.4 295.818 429.632 292.98 431.486C291.689 432.329 290.346 433.091 289.008 433.859C287.671 434.627 286.337 435.404 285.036 436.232C284.033 436.871 283.02 437.554 281.859 437.815C281.443 437.908 281.016 437.944 280.601 438.041C280.187 438.138 279.773 438.302 279.476 438.606C279.202 438.884 279.049 439.256 278.83 439.579C278.721 439.741 278.593 439.893 278.434 440.007C278.275 440.121 278.082 440.194 277.887 440.188C277.751 440.183 277.619 440.142 277.485 440.122C277.417 440.112 277.349 440.108 277.281 440.117C277.214 440.125 277.147 440.148 277.092 440.188C277.037 440.228 276.994 440.286 276.967 440.349C276.94 440.412 276.927 440.48 276.924 440.549C276.918 440.686 276.95 440.822 276.983 440.956C277.05 441.222 277.092 441.495 277.092 441.77V446.516C277.092 447.308 277.018 448.102 277.092 448.89C277.171 449.726 277.474 450.531 277.887 451.263C278.354 452.092 278.961 452.835 279.476 453.636C280.044 454.522 280.498 455.478 281.095 456.345C281.691 457.212 282.462 458.007 283.447 458.383C283.84 458.532 284.256 458.611 284.664 458.713C285.072 458.814 285.481 458.941 285.831 459.174C286.143 459.382 286.395 459.666 286.638 459.951C286.881 460.236 287.122 460.527 287.419 460.756C287.889 461.118 288.468 461.301 289.008 461.547C291.084 462.495 292.576 464.391 294.569 465.503C295.814 466.197 297.213 466.562 298.541 467.085C299.868 467.607 301.136 468.293 302.513 468.667C304.321 469.159 306.235 469.093 308.073 469.458C309.965 469.834 311.743 470.661 313.634 471.04C314.96 471.306 316.341 471.352 317.606 471.831C318.439 472.147 319.19 472.64 319.951 473.102C320.712 473.565 321.503 474.007 322.372 474.205C323.149 474.381 323.957 474.355 324.752 474.297C325.546 474.239 326.343 474.15 327.138 474.205C328.487 474.297 329.773 474.798 331.11 474.996C332.684 475.228 334.286 475.035 335.876 474.996C337.465 474.957 339.055 475.072 340.643 474.996C344.437 474.814 348.081 473.553 351.764 472.622C353.634 472.15 355.535 471.758 357.325 471.04C359.856 470.025 362.082 468.392 364.474 467.085C367.07 465.666 369.867 464.628 372.418 463.129C375.522 461.306 378.192 458.842 381.156 456.801C384.481 454.51 388.158 452.763 391.483 450.472C394.446 448.43 397.117 445.966 400.221 444.143C402.772 442.645 405.569 441.608 408.165 440.188C410.556 438.879 412.781 437.243 415.314 436.232C417.418 435.393 419.711 434.996 421.669 433.859C423.641 432.714 425.167 430.877 427.23 429.903C428.745 429.189 430.458 428.986 431.996 428.321C433.083 427.851 434.066 427.158 435.174 426.739C436.195 426.353 437.291 426.213 438.351 425.948C439.976 425.541 441.511 424.84 443.117 424.366C445.778 423.58 448.673 423.4 451.061 421.993C452.201 421.32 453.169 420.398 454.239 419.619C455.309 418.84 456.494 418.195 457.416 417.246C458.338 416.297 458.949 415.094 459.799 414.082C460.521 413.223 461.404 412.515 462.182 411.708C464.743 409.056 466.057 405.489 467.743 402.215C469.208 399.371 471.016 396.633 471.715 393.513C472.066 391.947 472.126 390.325 472.509 388.767C472.77 387.709 473.179 386.684 473.304 385.602C473.425 384.553 473.275 383.493 473.304 382.438C473.34 381.111 473.644 379.808 473.841 378.496C474.038 377.183 474.098 375.854 474.098 374.527V365.825C474.098 365.296 474.121 364.767 474.157 364.239C474.194 363.712 474.232 363.172 474.098 362.661C473.93 362.017 473.495 361.476 473.035 360.994C472.575 360.511 472.073 360.058 471.715 359.496C471.396 358.995 471.205 358.427 470.991 357.874C470.777 357.321 470.531 356.766 470.126 356.332C469.801 355.982 469.388 355.726 468.97 355.492C468.553 355.258 468.123 355.04 467.743 354.75C467.215 354.346 466.8 353.815 466.433 353.261C466.066 352.708 465.742 352.128 465.36 351.585C464.029 349.694 462.012 348.323 459.799 347.63C458.758 347.303 457.676 347.122 456.622 346.839C455.566 346.555 454.531 346.17 453.444 346.048C452.128 345.9 450.797 346.048 449.472 346.048H439.145H434.379C432.789 346.048 431.188 345.829 429.613 346.048C428.531 346.198 427.505 346.619 426.435 346.839C425.109 347.111 423.7 347.078 422.464 347.63C421.43 348.091 420.61 348.923 419.891 349.795C419.172 350.667 418.523 351.603 417.697 352.376C416.732 353.28 415.559 353.931 414.52 354.75C413.049 355.907 411.868 357.38 410.548 358.705C408.418 360.844 405.931 362.595 403.398 364.243C402.599 364.763 401.794 365.274 401.015 365.825C397.803 368.099 395.064 370.961 392.277 373.736L388.305 377.691C387.511 378.483 386.636 379.2 385.922 380.065C385.079 381.086 384.548 382.369 383.539 383.229C382.813 383.848 381.891 384.202 381.156 384.811C380.502 385.353 380.026 386.074 379.562 386.784C379.097 387.494 378.626 388.217 377.978 388.767C377.251 389.384 376.34 389.752 375.595 390.349C375.012 390.817 374.546 391.413 374.007 391.931C373.466 392.45 372.843 392.897 372.418 393.513C372.081 394.002 371.886 394.57 371.676 395.125C371.466 395.679 371.229 396.239 370.829 396.678C370.577 396.954 370.266 397.175 370.035 397.469C369.917 397.619 369.821 397.786 369.701 397.934C369.58 398.082 369.426 398.214 369.24 398.26C369.111 398.291 368.976 398.279 368.843 398.264C368.711 398.25 368.576 398.234 368.446 398.26C368.255 398.296 368.089 398.418 367.963 398.565C367.837 398.713 367.747 398.886 367.656 399.057C367.566 399.229 367.474 399.401 367.346 399.547C367.218 399.693 367.049 399.811 366.857 399.842C366.726 399.863 366.591 399.843 366.459 399.827C366.327 399.812 366.19 399.802 366.063 399.842C365.972 399.871 365.891 399.924 365.821 399.988C365.751 400.052 365.692 400.127 365.636 400.203C365.525 400.356 365.422 400.522 365.268 400.633C365.141 400.725 364.986 400.773 364.832 400.803C364.677 400.833 364.519 400.845 364.364 400.874C364.209 400.902 364.054 400.949 363.925 401.039C363.861 401.084 363.803 401.14 363.76 401.205C363.717 401.271 363.687 401.346 363.68 401.424C363.666 401.56 363.716 401.693 363.745 401.827C363.759 401.893 363.767 401.962 363.759 402.03C363.752 402.098 363.726 402.165 363.68 402.215C363.632 402.266 363.566 402.295 363.498 402.307C363.429 402.318 363.359 402.312 363.291 402.299C363.155 402.273 363.024 402.218 362.885 402.215C362.787 402.213 362.689 402.238 362.601 402.281C362.512 402.324 362.434 402.386 362.366 402.456C362.23 402.598 362.137 402.775 362.052 402.951C361.967 403.128 361.886 403.308 361.768 403.465C361.65 403.622 361.488 403.755 361.296 403.797C361.167 403.826 361.032 403.812 360.899 403.798C360.767 403.783 360.632 403.769 360.502 403.797C360.31 403.839 360.148 403.97 360.029 404.126C359.91 404.281 359.827 404.46 359.742 404.636C359.656 404.812 359.563 404.988 359.429 405.13C359.361 405.201 359.283 405.263 359.196 405.308C359.109 405.352 359.011 405.379 358.913 405.38C358.776 405.38 358.644 405.331 358.509 405.306C358.442 405.294 358.372 405.288 358.304 405.298C358.236 405.307 358.17 405.333 358.119 405.38C358.068 405.426 358.035 405.492 358.021 405.559C358.006 405.627 358.009 405.698 358.02 405.766C358.043 405.903 358.099 406.033 358.119 406.171C358.152 406.397 358.082 406.637 357.932 406.81C357.782 406.983 357.554 407.087 357.325 407.087C357.095 407.087 356.867 406.983 356.717 406.81C356.567 406.637 356.497 406.397 356.53 406.171L354.147 407.753L354.147 407.753Z" fill="#5D483C"/>
</g>
<path opacity="0.93" fill-rule="evenodd" clip-rule="evenodd" d="M209.826 424.941L185.519 422.839L170 441.589L164.495 417.917L141.794 409.014L162.699 396.485L164.187 372.232L182.612 388.161L206.234 382.076L196.715 404.449L209.826 424.941Z" fill="#A2F2A6" fill-opacity="0.933333" stroke="#80ED85" stroke-width="0.0851283" stroke-linecap="round" stroke-linejoin="round"/>
<path opacity="0.93" fill-rule="evenodd" clip-rule="evenodd" d="M166.386 281.15L147.917 265.271L124.312 271.421L133.769 249.022L120.602 228.566L144.915 230.601L160.382 211.809L165.952 235.465L188.678 244.307L167.807 256.893L166.386 281.15Z" fill="#3CE343" fill-opacity="0.933333" stroke="#80ED85" stroke-width="0.0851283" stroke-linecap="round" stroke-linejoin="round"/>
<path opacity="0.93" fill-rule="evenodd" clip-rule="evenodd" d="M328.398 461.576L312.378 452.148L295.496 459.946L299.55 441.859L286.886 428.28L305.412 426.53L314.466 410.34L321.862 427.345L340.122 430.918L326.168 443.178L328.398 461.576Z" fill="#80ED85" fill-opacity="0.933333" stroke="#80ED85" stroke-width="0.0649262" stroke-linecap="round" stroke-linejoin="round"/>
<path opacity="0.93" fill-rule="evenodd" clip-rule="evenodd" d="M225.72 222.746L211.948 208.49L192.347 211.706L201.706 194.256L192.578 176.686L212.134 180.158L226.093 166.082L228.821 185.678L246.577 194.549L228.706 203.188L225.72 222.746Z" fill="#80ED85" fill-opacity="0.933333" stroke="#80ED85" stroke-width="0.0693097" stroke-linecap="round" stroke-linejoin="round"/>
<path opacity="0.93" fill-rule="evenodd" clip-rule="evenodd" d="M436.999 337.694L428.307 314.99L404.599 309.25L423.595 294.002L421.75 269.773L442.183 283.053L464.751 273.819L458.383 297.275L474.176 315.796L449.807 317.013L436.999 337.694Z" fill="#80ED85" fill-opacity="0.933333" stroke="#80ED85" stroke-width="0.0851283" stroke-linecap="round" stroke-linejoin="round"/>
<path opacity="0.93" fill-rule="evenodd" clip-rule="evenodd" d="M400.512 477.199L389.872 455.333L365.753 451.666L383.347 434.832L379.395 410.854L400.909 422.316L422.587 411.164L418.289 435.082L435.638 452.168L411.468 455.488L400.512 477.199Z" fill="#80ED85" fill-opacity="0.933333" stroke="#80ED85" stroke-width="0.0851283" stroke-linecap="round" stroke-linejoin="round"/>
<path opacity="0.93" fill-rule="evenodd" clip-rule="evenodd" d="M435.997 186.074L418.358 175.144L399.316 183.418L404.304 163.333L390.518 147.855L411.24 146.373L421.762 128.533L429.581 147.702L449.869 152.154L433.979 165.483L435.997 186.074Z" fill="#38E340" fill-opacity="0.933333" stroke="#80ED85" stroke-width="0.0724857" stroke-linecap="round" stroke-linejoin="round"/>
<path opacity="0.93" fill-rule="evenodd" clip-rule="evenodd" d="M471.072 407.875L455.051 398.447L438.17 406.245L442.223 388.158L429.56 374.579L448.086 372.829L457.14 356.639L464.536 373.644L482.796 377.217L468.841 389.477L471.072 407.875Z" fill="#54E75B" fill-opacity="0.933333" stroke="#80ED85" stroke-width="0.0649262" stroke-linecap="round" stroke-linejoin="round"/>
<path opacity="0.93" fill-rule="evenodd" clip-rule="evenodd" d="M465.689 254.133L454.367 239.427L435.783 240.378L446.329 225.109L439.678 207.802L457.518 213.072L471.991 201.424L472.471 219.95L488.068 230.059L470.524 236.238L465.689 254.133Z" fill="#80ED85" fill-opacity="0.933333" stroke="#80ED85" stroke-width="0.0649262" stroke-linecap="round" stroke-linejoin="round"/>
<path opacity="0.93" fill-rule="evenodd" clip-rule="evenodd" d="M147.761 355.936L136.439 341.229L117.855 342.18L128.401 326.912L121.749 309.604L139.59 314.875L154.063 303.227L154.543 321.752L170.139 331.861L152.596 338.04L147.761 355.936Z" fill="#80ED85" fill-opacity="0.933333" stroke="#80ED85" stroke-width="0.0649262" stroke-linecap="round" stroke-linejoin="round"/>
<path opacity="0.93" fill-rule="evenodd" clip-rule="evenodd" d="M226.47 482.34L219.688 471.64L206.991 471.138L215.114 461.408L211.669 449.228L223.472 453.914L234.04 446.888L233.212 459.515L243.187 467.352L230.873 470.47L226.47 482.34Z" fill="#3CE343" fill-opacity="0.933333" stroke="#80ED85" stroke-width="0.0443321" stroke-linecap="round" stroke-linejoin="round"/>
<path opacity="0.93" fill-rule="evenodd" clip-rule="evenodd" d="M341.06 212.716L334.277 202.016L321.581 201.515L329.703 191.784L326.259 179.604L338.061 184.29L348.629 177.264L347.801 189.891L357.776 197.728L345.462 200.846L341.06 212.716Z" fill="#A8F3AC" fill-opacity="0.933333" stroke="#80ED85" stroke-width="0.0443321" stroke-linecap="round" stroke-linejoin="round"/>
<path opacity="0.93" fill-rule="evenodd" clip-rule="evenodd" d="M324.208 512.55L317.426 501.851L304.729 501.349L312.852 491.618L309.407 479.439L321.21 484.125L331.777 477.098L330.95 489.725L340.925 497.563L328.611 500.68L324.208 512.55Z" fill="#80ED85" fill-opacity="0.933333" stroke="#80ED85" stroke-width="0.0443321" stroke-linecap="round" stroke-linejoin="round"/>
<path opacity="0.93" fill-rule="evenodd" clip-rule="evenodd" d="M402.848 255.231L396.065 244.531L383.369 244.03L391.491 234.299L388.047 222.119L399.849 226.805L410.417 219.779L409.589 232.406L419.564 240.243L407.25 243.361L402.848 255.231Z" fill="#80ED85" fill-opacity="0.933333" stroke="#80ED85" stroke-width="0.0443321" stroke-linecap="round" stroke-linejoin="round"/>
<path opacity="0.93" fill-rule="evenodd" clip-rule="evenodd" d="M361.447 152.476L349.137 149.337L339.563 157.656L338.757 145.028L327.853 138.531L339.664 133.864L342.5 121.53L350.606 131.274L363.262 130.149L356.461 140.837L361.447 152.476Z" fill="#80ED85" fill-opacity="0.933333" stroke="#80ED85" stroke-width="0.0443321" stroke-linecap="round" stroke-linejoin="round"/>
<path opacity="0.93" fill-rule="evenodd" clip-rule="evenodd" d="M189.622 162.457L190.028 149.81L179.796 142.307L192 138.783L196.003 126.774L203.14 137.243L215.845 137.324L208.052 147.318L211.902 159.377L199.949 155.085L189.622 162.457Z" fill="#80ED85" fill-opacity="0.933333" stroke="#80ED85" stroke-width="0.0443321" stroke-linecap="round" stroke-linejoin="round"/>
<path opacity="0.93" fill-rule="evenodd" clip-rule="evenodd" d="M397.959 377.785L393.116 370.144L384.05 369.786L389.85 362.838L387.39 354.141L395.818 357.487L403.364 352.47L402.773 361.486L409.896 367.082L401.103 369.309L397.959 377.785Z" fill="#80ED85" fill-opacity="0.933333" stroke="#80ED85" stroke-width="0.0316563" stroke-linecap="round" stroke-linejoin="round"/>
<path opacity="0.93" fill-rule="evenodd" clip-rule="evenodd" d="M186.557 360.045L188.795 351.289L182.821 344.488L191.875 343.902L196.523 336.143L199.88 344.537L208.727 346.541L201.748 352.315L202.568 361.314L194.897 356.488L186.557 360.045Z" fill="#80ED85" fill-opacity="0.933333" stroke="#80ED85" stroke-width="0.0316563" stroke-linecap="round" stroke-linejoin="round"/>
<path opacity="0.93" fill-rule="evenodd" clip-rule="evenodd" d="M157.547 202.137L152.704 194.496L143.638 194.138L149.438 187.19L146.978 178.492L155.406 181.838L162.952 176.821L162.361 185.838L169.484 191.434L160.691 193.661L157.547 202.137Z" fill="#80ED85" fill-opacity="0.933333" stroke="#80ED85" stroke-width="0.0316563" stroke-linecap="round" stroke-linejoin="round"/>
<path opacity="0.93" fill-rule="evenodd" clip-rule="evenodd" d="M283.37 207.738L278.526 200.097L269.461 199.739L275.26 192.791L272.801 184.094L281.229 187.44L288.775 182.423L288.184 191.439L295.307 197.036L286.513 199.262L283.37 207.738Z" fill="#80ED85" fill-opacity="0.933333" stroke="#80ED85" stroke-width="0.0316563" stroke-linecap="round" stroke-linejoin="round"/>
<path opacity="0.93" fill-rule="evenodd" clip-rule="evenodd" d="M266.519 510.917L261.675 503.277L252.609 502.919L258.409 495.97L255.95 487.273L264.378 490.619L271.924 485.602L271.333 494.618L278.456 500.215L269.662 502.441L266.519 510.917Z" fill="#80ED85" fill-opacity="0.933333" stroke="#80ED85" stroke-width="0.0316563" stroke-linecap="round" stroke-linejoin="round"/>
<path opacity="0.93" fill-rule="evenodd" clip-rule="evenodd" d="M247.421 434.846L242.578 427.206L233.512 426.848L239.312 419.899L236.852 411.202L245.28 414.548L252.826 409.531L252.235 418.547L259.358 424.144L250.565 426.37L247.421 434.846Z" fill="#80ED85" fill-opacity="0.933333" stroke="#80ED85" stroke-width="0.0316563" stroke-linecap="round" stroke-linejoin="round"/>
<path opacity="0.93" fill-rule="evenodd" clip-rule="evenodd" d="M466.488 190.952L461.644 183.311L452.578 182.953L458.378 176.005L455.919 167.308L464.347 170.654L471.892 165.637L471.301 174.653L478.424 180.249L469.631 182.476L466.488 190.952Z" fill="#80ED85" fill-opacity="0.933333" stroke="#80ED85" stroke-width="0.0316563" stroke-linecap="round" stroke-linejoin="round"/>
<path opacity="0.93" fill-rule="evenodd" clip-rule="evenodd" d="M130.585 381.145L125.742 373.505L116.676 373.147L122.476 366.198L120.016 357.501L128.444 360.847L135.99 355.83L135.399 364.846L142.522 370.443L133.729 372.669L130.585 381.145Z" fill="#80ED85" fill-opacity="0.933333" stroke="#80ED85" stroke-width="0.0316563" stroke-linecap="round" stroke-linejoin="round"/>
<path opacity="0.93" fill-rule="evenodd" clip-rule="evenodd" d="M189.003 306.178L184.16 298.538L175.094 298.18L180.894 291.232L178.434 282.534L186.862 285.88L194.408 280.863L193.817 289.88L200.94 295.476L192.147 297.702L189.003 306.178Z" fill="#80ED85" fill-opacity="0.933333" stroke="#80ED85" stroke-width="0.0316563" stroke-linecap="round" stroke-linejoin="round"/>
<path opacity="0.93" fill-rule="evenodd" clip-rule="evenodd" d="M482.208 358.496L480.126 349.701L471.671 346.423L479.427 341.734L479.945 332.713L486.82 338.61L495.595 336.313L492.088 344.646L496.993 352.247L487.951 351.501L482.208 358.496Z" fill="#A2F2A6" fill-opacity="0.933333" stroke="#80ED85" stroke-width="0.0316563" stroke-linecap="round" stroke-linejoin="round"/>
<path opacity="0.93" fill-rule="evenodd" clip-rule="evenodd" d="M486.502 288.876L486.949 279.851L479.738 274.368L488.494 272.003L491.502 263.478L496.467 271.041L505.538 271.256L499.849 278.295L502.447 286.952L493.967 283.74L486.502 288.876Z" fill="#80ED85" fill-opacity="0.933333" stroke="#80ED85" stroke-width="0.0316563" stroke-linecap="round" stroke-linejoin="round"/>
<path opacity="0.93" fill-rule="evenodd" clip-rule="evenodd" d="M305.36 151.524L281.545 146.24L263.673 162.781L261.36 138.593L240.04 126.777L262.425 117.112L267.121 93.2681L283.269 111.483L307.491 108.562L295.085 129.485L305.36 151.524Z" fill="#2CE134" fill-opacity="0.933333" stroke="#80ED85" stroke-width="0.0851283" stroke-linecap="round" stroke-linejoin="round"/>
<path opacity="0.93" fill-rule="evenodd" clip-rule="evenodd" d="M97.2777 303.332L90.4948 292.632L77.7986 292.131L85.921 282.4L82.4766 270.22L94.2794 274.906L104.847 267.88L104.019 280.507L113.994 288.344L101.68 291.462L97.2777 303.332Z" fill="#80ED85" fill-opacity="0.933333" stroke="#80ED85" stroke-width="0.0443321" stroke-linecap="round" stroke-linejoin="round"/>
<defs>
<filter id="filter0_f_220_2731" x="99.634" y="134.499" width="398.56" height="340.821" filterUnits="userSpaceOnUse" color-interpolation-filters="sRGB">
<feFlood flood-opacity="0" result="BackgroundImageFix"/>
<feBlend mode="normal" in="SourceGraphic" in2="BackgroundImageFix" result="shape"/>
<feGaussianBlur stdDeviation="0.105998" result="effect1_foregroundBlur_220_2731"/>
</filter>
<radialGradient id="paint0_radial_220_2731" cx="0" cy="0" r="1" gradientUnits="userSpaceOnUse" gradientTransform="translate(302.499 303.747) scale(232.692 231.731)">
<stop stop-color="#41291D"/>
<stop offset="1" stop-color="#793E2E"/>
</radialGradient>
</defs>
</svg>
