<svg width="76" height="76" viewBox="0 0 76 76" fill="none" xmlns="http://www.w3.org/2000/svg">
<path fill-rule="evenodd" clip-rule="evenodd" d="M38 76C58.9868 76 76 58.9868 76 38C76 17.0132 58.9868 0 38 0C17.0132 0 0 17.0132 0 38C0 58.9868 17.0132 76 38 76ZM38 63.7789C52.2373 63.7789 63.7789 52.2373 63.7789 38C63.7789 23.7627 52.2373 12.2211 38 12.2211C23.7627 12.2211 12.2211 23.7627 12.2211 38C12.2211 52.2373 23.7627 63.7789 38 63.7789Z" fill="#993D13"/>
<path d="M39.5121 37.7309C37.1841 37.7309 36.0441 37.1429 36.0921 35.9669C36.0921 34.8629 37.2081 34.3109 39.4401 34.3109C39.9681 34.3109 40.4721 34.3709 40.9521 34.4909C41.7441 33.6989 42.1401 32.4989 42.1401 30.8909C42.1401 28.1069 40.2801 26.7149 36.5601 26.7149C34.6161 26.7149 32.7681 27.1349 31.0161 27.9749C30.3681 28.2869 29.7801 28.5749 29.2521 28.8389C28.7481 29.1029 28.2801 29.2349 27.8481 29.2349C27.4161 29.2349 27.2001 29.1029 27.2001 28.8389C27.2001 28.5269 27.4401 28.0709 27.9201 27.4709C28.4001 26.8469 29.0721 26.2229 29.9361 25.5989C32.1441 24.0629 34.6521 23.2829 37.4601 23.2589C41.1321 23.2589 43.8321 23.9909 45.5601 25.4549C47.0481 26.6789 47.7921 28.3469 47.7921 30.4589C47.7921 32.9069 46.5921 34.7789 44.1921 36.0749C46.4961 37.3949 47.8641 39.0149 48.2961 40.9349C48.4401 41.6069 48.5121 42.4949 48.5121 43.5989C48.5121 44.7029 48.2121 45.7469 47.6121 46.7309C47.0121 47.7149 46.2081 48.5429 45.2001 49.2149C43.1841 50.5109 40.6041 51.1589 37.4601 51.1589C35.2281 51.1589 32.7441 50.6549 30.0081 49.6469C28.1841 48.9749 26.8401 48.1709 25.9761 47.2349C25.5441 46.7789 25.3281 46.3229 25.3281 45.8669C25.3521 45.4109 25.5801 45.1829 26.0121 45.1829C26.4681 45.1829 27.3201 45.3389 28.5681 45.6509V45.6149C28.5681 43.7429 28.7841 41.8229 29.2161 39.8549C29.9601 36.4229 30.8241 33.7349 31.8081 31.7909C32.8641 29.6309 33.9561 28.5509 35.0841 28.5509C35.3961 28.5509 35.5521 29.0909 35.5521 30.1709C35.5521 31.2509 35.4441 32.3549 35.2281 33.4829C35.0361 34.6109 34.8201 35.7269 34.5801 36.8309C34.3641 37.9109 34.1481 38.8949 33.9321 39.7829C33.7401 40.6709 33.6441 41.3069 33.6441 41.6909L33.2841 47.1269C34.7001 47.5109 35.9001 47.7029 36.8841 47.7029C37.8681 47.7029 38.7561 47.5349 39.5481 47.1989C41.5401 46.3589 42.5361 44.8949 42.5361 42.8069C42.5361 41.5589 42.4161 40.5269 42.1761 39.7109C41.9361 38.8949 41.5041 38.1749 40.8801 37.5509C40.3281 37.6709 39.8721 37.7309 39.5121 37.7309Z" fill="#993D13"/>
</svg>
