<svg width="48" height="48" viewBox="0 0 48 48" fill="none" xmlns="http://www.w3.org/2000/svg">
<path fill-rule="evenodd" clip-rule="evenodd" d="M24 48C37.2548 48 48 37.2548 48 24C48 10.7452 37.2548 0 24 0C10.7452 0 0 10.7452 0 24C0 37.2548 10.7452 48 24 48ZM24 40.2814C32.992 40.2814 40.2814 32.992 40.2814 24C40.2814 15.008 32.992 7.71859 24 7.71859C15.008 7.71859 7.71859 15.008 7.71859 24C7.71859 32.992 15.008 40.2814 24 40.2814Z" fill="#993D13"/>
<path d="M25.4704 25.0181C23.9184 25.0181 23.1584 24.6261 23.1904 23.8421C23.1904 23.1061 23.9344 22.7381 25.4224 22.7381C25.7744 22.7381 26.1104 22.7781 26.4304 22.8581C26.9584 22.3301 27.2224 21.5301 27.2224 20.4581C27.2224 18.6021 25.9824 17.6741 23.5024 17.6741C22.2064 17.6741 20.9744 17.9541 19.8064 18.5141C19.3744 18.7221 18.9824 18.9141 18.6304 19.0901C18.2944 19.2661 17.9824 19.3541 17.6944 19.3541C17.4064 19.3541 17.2624 19.2661 17.2624 19.0901C17.2624 18.8821 17.4224 18.5781 17.7424 18.1781C18.0624 17.7621 18.5104 17.3461 19.0864 16.9301C20.5584 15.9061 22.2304 15.3861 24.1024 15.3701C26.5504 15.3701 28.3504 15.8581 29.5024 16.8341C30.4944 17.6501 30.9904 18.7621 30.9904 20.1701C30.9904 21.8021 30.1904 23.0501 28.5904 23.9141C30.1264 24.7941 31.0384 25.8741 31.3264 27.1541C31.4224 27.6021 31.4704 28.1941 31.4704 28.9301C31.4704 29.6661 31.2704 30.3621 30.8704 31.0181C30.4704 31.6741 29.9344 32.2261 29.2624 32.6741C27.9184 33.5381 26.1984 33.9701 24.1024 33.9701C22.6144 33.9701 20.9584 33.6341 19.1344 32.9621C17.9184 32.5141 17.0224 31.9781 16.4464 31.3541C16.1584 31.0501 16.0144 30.7461 16.0144 30.4421C16.0304 30.1381 16.1824 29.9861 16.4704 29.9861C16.7744 29.9861 17.3424 30.0901 18.1744 30.2981V30.2741C18.1744 29.0261 18.3184 27.7461 18.6064 26.4341C19.1024 24.1461 19.6784 22.3541 20.3344 21.0581C21.0384 19.6181 21.7664 18.8981 22.5184 18.8981C22.7264 18.8981 22.8304 19.2581 22.8304 19.9781C22.8304 20.6981 22.7584 21.4341 22.6144 22.1861C22.4864 22.9381 22.3424 23.6821 22.1824 24.4181C22.0384 25.1381 21.8944 25.7941 21.7504 26.3861C21.6224 26.9781 21.5584 27.4021 21.5584 27.6581L21.3184 31.2821C22.2624 31.5381 23.0624 31.6661 23.7184 31.6661C24.3744 31.6661 24.9664 31.5541 25.4944 31.3301C26.8224 30.7701 27.4864 29.7941 27.4864 28.4021C27.4864 27.5701 27.4064 26.8821 27.2464 26.3381C27.0864 25.7941 26.7984 25.3141 26.3824 24.8981C26.0144 24.9781 25.7104 25.0181 25.4704 25.0181Z" fill="#993D13"/>
</svg>
