<svg width="199" height="199" viewBox="0 0 199 199" fill="none" xmlns="http://www.w3.org/2000/svg">
<path fill-rule="evenodd" clip-rule="evenodd" d="M99.5 199C154.452 199 199 154.452 199 99.5C199 44.5477 154.452 0 99.5 0C44.5477 0 0 44.5477 0 99.5C0 154.452 44.5477 199 99.5 199ZM99.5 167C136.779 167 167 136.779 167 99.5C167 62.2208 136.779 32 99.5 32C62.2208 32 32 62.2208 32 99.5C32 136.779 62.2208 167 99.5 167Z" fill="#993D13"/>
<path d="M104.168 100.304C97.96 100.304 94.92 98.736 95.048 95.6C95.048 92.656 98.024 91.184 103.976 91.184C105.384 91.184 106.728 91.344 108.008 91.664C110.12 89.552 111.176 86.352 111.176 82.064C111.176 74.64 106.216 70.928 96.296 70.928C91.112 70.928 86.184 72.048 81.512 74.288C79.784 75.12 78.216 75.888 76.808 76.592C75.464 77.296 74.216 77.648 73.064 77.648C71.912 77.648 71.336 77.296 71.336 76.592C71.336 75.76 71.976 74.544 73.256 72.944C74.536 71.28 76.328 69.616 78.632 67.952C84.52 63.856 91.208 61.776 98.696 61.712C108.488 61.712 115.688 63.664 120.296 67.568C124.264 70.832 126.248 75.28 126.248 80.912C126.248 87.44 123.048 92.432 116.648 95.888C122.792 99.408 126.44 103.728 127.592 108.848C127.976 110.64 128.168 113.008 128.168 115.952C128.168 118.896 127.368 121.68 125.768 124.304C124.168 126.928 122.024 129.136 119.336 130.928C113.96 134.384 107.08 136.112 98.696 136.112C92.744 136.112 86.12 134.768 78.824 132.08C73.96 130.288 70.376 128.144 68.072 125.648C66.92 124.432 66.344 123.216 66.344 122C66.408 120.784 67.016 120.176 68.168 120.176C69.384 120.176 71.656 120.592 74.984 121.424V121.328C74.984 116.336 75.56 111.216 76.712 105.968C78.696 96.816 81 89.648 83.624 84.464C86.44 78.704 89.352 75.824 92.36 75.824C93.192 75.824 93.608 77.264 93.608 80.144C93.608 83.024 93.32 85.968 92.744 88.976C92.232 91.984 91.656 94.96 91.016 97.904C90.44 100.784 89.864 103.408 89.288 105.776C88.776 108.144 88.52 109.84 88.52 110.864L87.56 125.36C91.336 126.384 94.536 126.896 97.16 126.896C99.784 126.896 102.152 126.448 104.264 125.552C109.576 123.312 112.232 119.408 112.232 113.84C112.232 110.512 111.912 107.76 111.272 105.584C110.632 103.408 109.48 101.488 107.816 99.824C106.344 100.144 105.128 100.304 104.168 100.304Z" fill="#993D13"/>
</svg>
